<?xml version="1.0" encoding="utf-8"?>
<!-- Generator: Adobe Illustrator 27.8.1, SVG Export Plug-In . SVG Version: 6.00 Build 0)  -->
<svg version="1.1" id="Layer_1" xmlns="http://www.w3.org/2000/svg" xmlns:xlink="http://www.w3.org/1999/xlink" x="0px" y="0px"
	 viewBox="0 0 792 252" style="enable-background:new 0 0 792 252;" xml:space="preserve">
<style type="text/css">
	.st0{fill:none;stroke:#F04C23;stroke-width:3.2;stroke-linecap:round;stroke-miterlimit:10;}
	.st1{fill:none;stroke:#3959A8;stroke-width:3.2;stroke-linecap:round;stroke-miterlimit:10;}
	.st2{fill:#1F255A;}
	.st3{fill:#3959A8;}
	.st4{fill:#F04C23;}
</style>
<g>
	<line class="st0" x1="125.6" y1="52.7" x2="125.6" y2="211.9"/>
	<line class="st1" x1="486.2" y1="91.6" x2="486.2" y2="197.1"/>
	<path class="st2" d="M19.1,143.6c-0.7-0.7-1-1.9-0.2-2.9l12.9-14.8c0.7-0.9,1.7-0.9,2.5-0.2c7.7,6.1,18,11.9,30.3,11.9
		c12.1,0,18.9-5.6,18.9-13.8c0-6.8-4.1-11.1-17.9-12.9l-6.1-0.8C36.1,106.9,23,95.8,23,75.4c0-21.3,16-35.4,41-35.4
		c15.3,0,29.6,4.6,39.3,12.1c1,0.7,1.2,1.4,0.3,2.5L93.3,70.2c-0.7,0.8-1.5,1-2.4,0.5C82,64.9,73.5,61.8,64,61.8
		c-10.2,0-15.5,5.3-15.5,12.6c0,6.6,4.8,10.9,18,12.8l6.1,0.9c23.8,3.2,36.4,14.1,36.4,35s-15.5,36.4-45.4,36.4
		C45.6,159.4,28.1,152.3,19.1,143.6z"/>
	<path class="st2" d="M197,136.3c-1.9-6-2.7-11.7-2.7-19.9c0-8.2,0.8-13.9,2.7-19.9c4.8-15,18.4-23.1,35.7-23.1
		c17.3,0,30.9,8.2,35.7,23.1c1.9,6,2.7,11.7,2.7,19.9c0,8.2-0.8,13.9-2.7,19.9c-4.8,15-18.4,23.1-35.7,23.1
		C215.4,159.4,201.8,151.3,197,136.3z M245.5,130.5c1.2-3.7,1.5-7.1,1.5-14.1s-0.3-10.4-1.5-14.1c-1.9-5.8-6.5-8.8-12.8-8.8
		c-6.3,0-10.9,3.1-12.8,8.8c-1.2,3.7-1.5,7.1-1.5,14.1s0.3,10.4,1.5,14.1c1.9,5.8,6.5,8.8,12.8,8.8
		C239,139.4,243.6,136.3,245.5,130.5z"/>
	<path class="st2" d="M279.4,157.6c-1,0-1.7-0.7-1.7-1.7V77c0-1,0.7-1.7,1.7-1.7h20.4c1,0,1.7,0.7,1.7,1.7v7h0.2
		c3.9-6.6,11.4-10.5,21.4-10.5c5.4,0,10.9,1.9,14.5,4.9c0.8,0.7,1,1.4,0.5,2.4L328.5,98c-0.7,0.9-1.4,0.9-2.4,0.3
		c-3.9-2.5-7.8-3.9-11.9-3.7c-8.8,0.3-12.8,6.8-12.8,17.9v43.4c0,1-0.7,1.7-1.7,1.7H279.4z"/>
	<path class="st2" d="M377,158.6c-19,0-26.2-8.5-26.2-27.4V93.8c0-0.7-0.3-1-1-1h-5.1c-1,0-1.7-0.7-1.7-1.7V77c0-1,0.7-1.7,1.7-1.7
		h5.1c0.7,0,1-0.3,1-1V52.1c0-1,0.7-1.7,1.7-1.7h20.2c1,0,1.7,0.7,1.7,1.7v22.1c0,0.7,0.3,1,1,1H386c1,0,1.7,0.7,1.7,1.7v14.1
		c0,1-0.7,1.7-1.7,1.7h-10.5c-0.7,0-1,0.3-1,1v36.4c0,6.1,2,8.2,7.5,8.2h4.1c1,0,1.7,0.7,1.7,1.7v16.8c0,1-0.7,1.7-1.7,1.7H377z"/>
	<path class="st2" d="M393.5,146.7c-0.7-0.7-0.7-1.7,0-2.4l11.1-12.4c0.7-0.7,1.5-0.7,2.4,0c7.3,5.6,16.7,9,25.2,9
		c8.7,0,12.8-3.2,12.8-7.8c0-3.9-2.2-6.3-11.7-7.1l-9.2-1c-17.3-1.7-26.9-10.4-26.9-25.2c0-16.2,12.4-26.4,33.8-26.4
		c13.9,0,25.7,4.4,33.3,10.2c0.7,0.7,0.9,1.7,0.2,2.6l-9.5,11.7c-0.7,0.9-1.5,0.9-2.4,0.3c-5.6-3.6-13.8-6.6-22.3-6.6
		c-7,0-10.4,2.7-10.4,6.8c0,3.7,2,6,11.4,6.8l9,1c19.4,1.9,27.4,11.2,27.4,25c-0.2,16.8-13.3,28.2-36.7,28.2
		C413.8,159.4,401.3,153.5,393.5,146.7z"/>
	<path class="st3" d="M474.9,109c0-1,0.7-1.7,1.7-1.7h19.2c1.4,0,1.7,0.5,1.7,1.7v70.4c0,1-0.7,1.7-1.7,1.7h-19.2
		c-1,0-1.7-0.7-1.7-1.7V109z"/>
	<path class="st3" d="M561.7,86c0-1,0.7-1.7,1.7-1.7h19.2c1.4,0,1.7,0.5,1.7,1.7v68.3c0,1-0.7,1.7-1.7,1.7h-19.2
		c-1,0-1.7-0.7-1.7-1.7V86z"/>
	<g>
		<path class="st4" d="M136.9,83h0.2c3.7-5.6,10.7-9.5,21.6-9.5c13.8,0,23.6,6.6,27.9,19.7c2,6.5,2.9,12.6,2.9,23.3
			c0,10.5-0.8,16.8-2.9,23.3c-4.2,12.9-14.1,19.7-27.9,19.7c-10.9,0-17.9-3.9-21.6-9.5h-0.2V83z M163.8,130.6
			c1-3.2,1.5-6.8,1.5-14.1s-0.5-10.9-1.5-14.1c-1.9-6-6.3-8.8-12.8-8.8c-6.3,0-10.7,2.9-12.6,8.8c-1,3.2-1.5,6.8-1.5,14.1
			s0.5,10.9,1.5,14.1c1.9,5.8,6.3,8.8,12.6,8.8C157.5,139.5,161.9,136.4,163.8,130.6z"/>
		<path class="st4" d="M114.6,76.1c0-1,0.7-1.7,1.7-1.7h19.2c1.4,0,1.7,0.2,1.7,1.7v112.2c0,1-0.7,1.7-1.7,1.7h-19.2
			c-1,0-1.7-0.7-1.7-1.7V76.1z"/>
	</g>
	<path class="st3" d="M497.6,56.4c1.4,0,2.2,0.5,2.7,1.7l29.2,66h0.7l28.7-66c0.5-1.2,1.4-1.7,2.7-1.7v47.2L538.6,154
		c-0.7,1.5-1.7,2.2-3.2,2.2h-11.7c-1.5,0-2.6-0.7-3.2-2.2l-22.8-49.8V56.4z"/>
	<path class="st2" d="M592.6,43.6c0-1,0.7-1.7,1.7-1.7h74.1c1,0,1.7,0.7,1.7,1.7v18.2c0,1-0.7,1.7-1.7,1.7h-49.8c-0.7,0-1,0.3-1,1
		v23c0,0.7,0.3,1,1,1h41.5c1,0,1.7,0.7,1.7,1.7v18c0,1-0.7,1.7-1.7,1.7h-41.5c-0.7,0-1,0.3-1,1v24c0,0.7,0.3,1,1,1h49.8
		c1,0,1.7,0.7,1.7,1.7v18.2c0,1-0.7,1.7-1.7,1.7h-74.1c-1,0-1.7-0.7-1.7-1.7V43.6z"/>
	<path class="st2" d="M748.7,157.6c-1.5,0-2.2-0.5-2.9-1.7l-20.6-35.2h-0.5L704,155.9c-0.7,1.2-1.4,1.7-2.9,1.7h-23.5
		c-1.2,0-1.7-1-1-2l34.5-57.6L679,44c-0.5-1-0.2-2,1-2h23.6c1.4,0,2,0.5,2.7,1.7l18.4,31.3h0.5l18.4-31.3c0.7-1.2,1.4-1.7,2.7-1.7
		h23.6c1.2,0,1.5,1,1,2l-32.3,53.9l34.7,57.6c0.5,1,0.2,2-1,2H748.7z"/>
	<line class="st1" x1="573" y1="68.4" x2="573" y2="171.9"/>
</g>
</svg>
