<?xml version="1.0" encoding="utf-8"?>
<!-- Generator: Adobe Illustrator 27.8.1, SVG Export Plug-In . SVG Version: 6.00 Build 0)  -->
<svg version="1.1" id="Layer_1" xmlns="http://www.w3.org/2000/svg" xmlns:xlink="http://www.w3.org/1999/xlink" x="0px" y="0px"
	 viewBox="0 0 180 180" style="enable-background:new 0 0 180 180;" xml:space="preserve">
<style type="text/css">
	.st0{fill:#FFFFFF;}
	.st1{fill:#1F255A;}
</style>
<g>
	<circle class="st0" cx="90" cy="90" r="50.9"/>
	<path class="st1" d="M58.4,121.1c-0.5-0.5-0.7-1.3-0.1-2l9.2-10.5c0.5-0.6,1.2-0.6,1.8-0.1c5.4,4.3,12.8,8.4,21.4,8.4
		c8.6,0,13.4-4,13.4-9.8c0-4.8-2.9-7.8-12.6-9.2L87,97.3c-16.6-2.3-25.9-10.1-25.9-24.6c0-15.1,11.3-25.1,29-25.1
		c10.8,0,21,3.3,27.8,8.6c0.7,0.5,0.8,1,0.2,1.8l-7.3,11c-0.5,0.6-1.1,0.7-1.7,0.4c-6.3-4.1-12.3-6.3-19-6.3c-7.2,0-11,3.7-11,8.9
		c0,4.7,3.4,7.7,12.8,9l4.3,0.6c16.9,2.3,25.8,10,25.8,24.8s-11,25.8-32.2,25.8C77.2,132.3,64.8,127.2,58.4,121.1z"/>
</g>
</svg>
